<?xml version="1.0" encoding="UTF-8"?>
<svg xmlns="http://www.w3.org/2000/svg" xmlns:xlink="http://www.w3.org/1999/xlink" width="96pt" height="96pt" viewBox="0 0 96 96" version="1.1">
<g id="surface8961905">
<path style=" stroke:none;fill-rule:nonzero;fill:rgb(100%,100%,100%);fill-opacity:1;" d="M 76 12 L 20 12 C 15.578125 12 12 15.578125 12 20 L 12 76 C 12 80.421875 15.578125 84 20 84 L 50.484375 84 L 50.484375 56.15625 L 41.113281 56.15625 L 41.113281 45.257812 L 50.484375 45.257812 L 50.484375 37.234375 C 50.484375 27.941406 56.167969 22.871094 64.464844 22.871094 C 67.261719 22.863281 70.050781 23.007812 72.832031 23.292969 L 72.832031 33.011719 L 67.121094 33.011719 C 62.601562 33.011719 61.71875 35.148438 61.71875 38.300781 L 61.71875 45.238281 L 72.519531 45.238281 L 71.117188 56.140625 L 61.65625 56.140625 L 61.65625 84 L 76 84 C 80.421875 84 84 80.421875 84 76 L 84 20 C 84 15.578125 80.421875 12 76 12 Z M 76 12 "/>
</g>
</svg>
