<?xml version="1.0" encoding="UTF-8"?>
<svg xmlns="http://www.w3.org/2000/svg" xmlns:xlink="http://www.w3.org/1999/xlink" width="96pt" height="96pt" viewBox="0 0 96 96" version="1.1">
<g id="surface8774441">
<path style=" stroke:none;fill-rule:nonzero;fill:rgb(100%,100%,100%);fill-opacity:1;" d="M 32 12 C 20.957031 12 12 20.957031 12 32 L 12 64 C 12 75.042969 20.957031 84 32 84 L 64 84 C 75.042969 84 84 75.042969 84 64 L 84 32 C 84 20.957031 75.042969 12 64 12 Z M 72 20 C 74.207031 20 76 21.792969 76 24 C 76 26.207031 74.207031 28 72 28 C 69.792969 28 68 26.207031 68 24 C 68 21.792969 69.792969 20 72 20 Z M 48 28 C 59.042969 28 68 36.957031 68 48 C 68 59.042969 59.042969 68 48 68 C 36.957031 68 28 59.042969 28 48 C 28 36.957031 36.957031 28 48 28 Z M 48 36 C 41.371094 36 36 41.371094 36 48 C 36 54.628906 41.371094 60 48 60 C 54.628906 60 60 54.628906 60 48 C 60 41.371094 54.628906 36 48 36 Z M 48 36 "/>
</g>
</svg>
