<?xml version="1.0" encoding="utf-8"?>
<!-- Generator: Adobe Illustrator 24.0.0, SVG Export Plug-In . SVG Version: 6.00 Build 0)  -->
<svg version="1.1" id="Layer_2_1_" xmlns="http://www.w3.org/2000/svg" xmlns:xlink="http://www.w3.org/1999/xlink" x="0px" y="0px"
	 viewBox="0 0 528.9 493" style="enable-background:new 0 0 528.9 493;" xml:space="preserve">
<style type="text/css">
	.st0{enable-background:new    ;}
</style>
<title>jppj-logo-black</title>
<g class="st0">
	<path d="M150.5,257.7c0,81.1-66.7,118.2-150.5,118.2v-39.4c62,0,111.1-24.6,111.1-78.8V142.3H37.4v-39h113.1V257.7z"/>
</g>
<g class="st0">
	<path d="M512.5,257.7c0,81.1-66.7,118.2-150.5,118.2v-39.4c62,0,111.1-24.6,111.1-78.8V142.3h-73.7v-39h113.1V257.7z"/>
</g>
<g class="st0">
	<path d="M257.6,53.6c54,0,81.2,41.9,81.2,83.7s-27.2,83.4-81.2,83.4h-55.1v83.4H166V53.6H257.6z M257.6,184.9
		c30.4,0,45.4-23.6,45.4-47.2c0-24-15-47.6-45.4-47.6h-55.1v94.8H257.6z"/>
</g>
<g class="st0">
	<path d="M317.4,104.1c58.5,0,88,45.3,88,90.7s-29.5,90.3-88,90.3h-59.7v90.3h-39.5V104.1H317.4z M317.4,246.4
		c32.9,0,49.2-25.6,49.2-51.2c0-26-16.3-51.5-49.2-51.5h-59.7v102.7H317.4z"/>
</g>
<g class="st0">
	<path d="M88.4,411.5c-1.9-4.4-4.6-8.3-7.8-11.6c-7-7.2-16.7-11.6-27.4-11.6c-10.7,0-20.4,4.4-27.4,11.6S14.5,417,14.5,427.8
		c0,10.9,4.4,20.7,11.4,27.8c7,7.2,16.7,11.7,27.4,11.7c10.7,0,20.4-4.5,27.4-11.7c3.2-3.3,5.9-7.1,7.8-11.5h2
		c-2,4.9-5,9.2-8.5,12.9c-7.3,7.6-17.4,12.2-28.7,12.2c-11.2,0-21.3-4.6-28.7-12.2c-7.2-7.5-11.8-17.8-11.8-29.2
		c0-11.4,4.6-21.7,11.8-29.1c7.3-7.6,17.4-12.2,28.7-12.2c11.2,0,21.3,4.6,28.7,12.2c3.6,3.7,6.5,8.1,8.5,12.9H88.4z"/>
	<path d="M101,426.2h52v-39.9h1.9v82.8h-1.9V428h-52v41.1h-1.8v-82.8h1.8V426.2z"/>
	<path d="M175.2,397.6c7.6-7.8,18.2-12.6,29.8-12.6c11.7,0,22.3,4.7,30,12.6c7.6,7.7,12.4,18.4,12.4,30.1c0,11.7-4.9,22.4-12.4,30.1
		c-7.7,7.8-18.2,12.6-30,12.6c-11.6,0-22.3-4.7-29.8-12.6c-7.6-7.7-12.4-18.4-12.4-30.1C162.8,415.9,167.6,405.3,175.2,397.6z
		 M233.7,399c-7.3-7.5-17.5-12.1-28.7-12.1s-21.2,4.6-28.5,12.1c-7.2,7.3-11.8,17.4-11.8,28.7c0,11.2,4.6,21.3,11.8,28.7
		c7.3,7.5,17.4,12.1,28.5,12.1s21.3-4.6,28.7-12.1c7.2-7.3,11.7-17.4,11.7-28.7C245.4,416.4,240.9,406.3,233.7,399z"/>
	<path d="M257.4,469.1h-1.8v-81.9v-0.9h0.9h27.7c33.2,0,33.2,48.4,0,48.4h-13.4l38.1,34.5h-2.7l-38.1-34.5v-1.8h16.1
		c30.8,0,30.8-44.8,0-44.8h-26.9V469.1z"/>
	<path d="M368.1,441.3h-41.9l-11.2,27.8h-2l33.3-84.1h2l33.3,84.1h-2L368.1,441.3z M327,439.5h40.4l-20.2-52L327,439.5z"/>
	<path d="M389.5,467.2H434v1.9c-15.5,0-30.9,0-46.4,0v-82.8h1.9V467.2z"/>
	<path d="M443.4,467.3h44v1.8h-45.7h-0.2v-82.8h45.7v1.8h-43.8v38.6h42.9v1.9h-42.9V467.3z"/>
</g>
</svg>
