<?xml version="1.0" encoding="UTF-8"?>
<svg xmlns="http://www.w3.org/2000/svg" xmlns:xlink="http://www.w3.org/1999/xlink" width="96pt" height="96pt" viewBox="0 0 96 96" version="1.1">
<g id="surface8970834">
<path style=" stroke:none;fill-rule:nonzero;fill:rgb(100%,100%,100%);fill-opacity:1;" d="M 84 0 L 32 18.5 C 29.796875 19.234375 28 21.671875 28 23.875 L 28 71.125 C 26.1875 70.828125 24.140625 70.859375 22 71.375 C 14.265625 73.265625 8 80.25 8 86.875 C 8 93.5 14.265625 97.265625 22 95.375 C 29.640625 93.515625 35.84375 86.796875 36 80.25 C 36 80.171875 36 80.078125 36 80 L 36 33.125 L 80 17.375 L 80 59.125 C 78.1875 58.828125 76.140625 58.859375 74 59.375 C 66.265625 61.265625 60 68.25 60 74.875 C 60 81.5 66.265625 85.265625 74 83.375 C 81.734375 81.484375 88 74.625 88 68 L 88 4 C 88 1.796875 86.203125 0 84 0 Z M 84 0 "/>
</g>
</svg>
